# xmcd
#
# Track frame offsets:
#	150
#	13412
#	31687
#	51975
#	63332
#	74325
#	83205
#	96755
#	107182
#	120082
#	128720
#	139252
#	152825
#	166862
#	177542
#	191720
#	204640
#	218880
#	236042
#	249565
#	264007
#	273860
#	283552
#	293010
#
# Disc length: 4136 seconds
#
# Revision: 1
# Processed by: cddbd v1.5.2PL0 Copyright (c) Steve Scherf et al.
# Submitted via: audiograbber 1.83.01
#
DISCID=5e102618
DTITLE=O MELHOR DO VIOLÃO - 2 EM 1
DYEAR=1900
DGENRE=Instrumental Pop
TTITLE0=ONTEM AO LUAR
TTITLE1=LÁGRIMAS DE VIRGEM
TTITLE2=CORÇÃO QUE SENTE
TTITLE3=CHORO Nº 1
TTITLE4=ESCORREGANDO
TTITLE5=TRITEZA DE UM VIOLÃO
TTITLE6=ODEON
TTITLE7=TRITESSE
TTITLE8=DOIS DESTINO
TTITLE9=NA BAIXA DO SAPATEIRO
TTITLE10=PIONEIRO
TTITLE11=UMA VALSA A DOIS AMORES
TTITLE12=A SIMPLICIDADE
TTITLE13=AS ABELHAS
TTITLE14=SUBINDO DO CÉU
TTITLE15=PEDACINHO DO CÉU
TTITLE16=MINUETO OPUS 11 Nº 3
TTITLE17=GRAÚNA
TTITLE18=TEMPO DE CRIANÇA
TTITLE19=CHORO DA SAUDADE
TTITLE20=DUAS CONTA
TTITLE21=EU SONHEI QUE ESTAVA TÃO LINDA
TTITLE22=BREJEIRO
TTITLE23=EVOCAÇÃO A JACOB
EXTD=
EXTT0=
EXTT1=
EXTT2=
EXTT3=
EXTT4=
EXTT5=
EXTT6=
EXTT7=
EXTT8=
EXTT9=
EXTT10=
EXTT11=
EXTT12=
EXTT13=
EXTT14=
EXTT15=
EXTT16=
EXTT17=
EXTT18=
EXTT19=
EXTT20=
EXTT21=
EXTT22=
EXTT23=
PLAYORDER=
